<?xml version="1.0" encoding="utf-8"?><!DOCTYPE svg PUBLIC "-//W3C//DTD SVG 1.1//EN" "http://www.w3.org/Graphics/SVG/1.1/DTD/svg11.dtd">
<svg version="1.1" xmlns="http://www.w3.org/2000/svg" xmlns:xlink="http://www.w3.org/1999/xlink" width="576" height="576" viewBox="0 0 576 576">
<path fill="#FFF" d="M189 0c-104.22 0-189 84.78-189 189s84.78 189 189 189c49.050 0 93.654-18.936 127.278-49.68 0.396 0.702 0.756 1.44 1.368 2.052l38.718 38.718c-3.24 5.472-5.076 11.664-5.076 18.198 0 9.612 3.744 18.648 10.548 25.452l152.73 152.73c6.786 6.786 15.822 10.53 25.434 10.53s18.648-3.744 25.452-10.548 10.548-15.84 10.548-25.452-3.744-18.648-10.548-25.452l-152.73-152.73c-11.412-11.412-29.862-13.122-43.56-5.382l-38.79-38.79c-0.612-0.612-1.332-0.972-2.052-1.368 30.744-33.624 49.68-78.228 49.68-127.278 0-104.22-84.78-189-189-189zM399.996 374.544l152.73 152.73c3.402 3.402 5.274 7.92 5.274 12.726s-1.872 9.324-5.274 12.726c-6.822 6.786-18.63 6.786-25.452 0l-152.73-152.73c-3.384-3.402-5.274-7.92-5.274-12.726s1.872-9.324 5.274-12.726c3.402-3.384 7.92-5.274 12.726-5.274s9.306 1.872 12.726 5.274zM189 360c-94.284 0-171-76.716-171-171s76.716-171 171-171 171 76.716 171 171-76.716 171-171 171zM189 54c-74.448 0-135 60.552-135 135s60.552 135 135 135 135-60.552 135-135-60.552-135-135-135zM189 306c-64.512 0-117-52.488-117-117s52.488-117 117-117 117 52.488 117 117-52.488 117-117 117z"></path>
</svg>
